<svg width="205.7" height="71" viewBox="0 0 205.7 71" xmlns="http://www.w3.org/2000/svg"><g id="svgGroup" stroke-linecap="round" fill-rule="evenodd" font-size="9pt" stroke="#ff0077" stroke-width="0.25mm" fill="#ff0077" style="stroke:#ff0077;stroke-width:0.25mm;fill:#ff0077"><path d="M 130.3 71 L 128.3 71 L 128.3 4.4 L 96.8 57 L 95.2 57 L 63.7 4.4 L 63.7 71 L 61.7 71 L 61.7 0 L 63.3 0 L 96 54.6 L 128.7 0 L 130.3 0 L 130.3 71 Z M 2 69 L 46.6 69 L 46.6 71 L 0 71 L 0 0 L 45.7 0 L 45.7 2 L 2 2 L 2 33.7 L 40.3 33.7 L 40.3 35.7 L 2 35.7 L 2 69 Z M 142 71 L 173 0 L 174.8 0 L 205.7 71 L 203.5 71 L 192.4 45.6 L 155.3 45.6 L 144.2 71 L 142 71 Z M 156.1 43.6 L 191.5 43.6 L 173.9 2.9 L 156.1 43.6 Z" vector-effect="non-scaling-stroke"/></g></svg>